# xmcd CD database file
#
# Track frame offsets:
#	150
#	14959
#	26090
#	42800
#	57439
#	77515
#
# Disc length: 1146 seconds
#
# Revision: 0
# Processed by: cddbd v1.5.2PL0 Copyright (c) Steve Scherf et al.
# Submitted via: CDex 1.70beta2
#
DISCID=48047806
DTITLE=Kactus Jake - Thomas Krick
DYEAR=2008
DGENRE=Country
TTITLE0=Newport
TTITLE1=Ein Bild kann nicht lachen so wie du
TTITLE2=Das ist die Geschichte von einen Jungen
TTITLE3=lolng black wail - lolng black wail
TTITLE4=Der Winzige Cowboy
TTITLE5=Angie
EXTD=YEAR: 2008
EXTT0=
EXTT1=
EXTT2=
EXTT3=
EXTT4=
EXTT5=
PLAYORDER=
